<?xml version="1.0" encoding="UTF-8" standalone="no"?>
<svg
   xmlns:dc="http://purl.org/dc/elements/1.1/"
   xmlns:cc="http://creativecommons.org/ns#"
   xmlns:rdf="http://www.w3.org/1999/02/22-rdf-syntax-ns#"
   xmlns:svg="http://www.w3.org/2000/svg"
   xmlns="http://www.w3.org/2000/svg"
   xmlns:sodipodi="http://sodipodi.sourceforge.net/DTD/sodipodi-0.dtd"
   xmlns:inkscape="http://www.inkscape.org/namespaces/inkscape"
   width="512"
   height="512"
   viewBox="0 0 135.46665 135.46668"
   version="1.1"
   id="svg8"
   inkscape:version="1.0 (4035a4fb49, 2020-05-01)"
   sodipodi:docname="icon_settings.svg"
   inkscape:export-filename="/home/carlo/multimonitor-tool/Icons/TV_extended.svg.png"
   inkscape:export-xdpi="96"
   inkscape:export-ydpi="96">
  <defs
     id="defs2" />
  <sodipodi:namedview
     id="base"
     pagecolor="#000000"
     bordercolor="#666666"
     borderopacity="1.0"
     inkscape:pageopacity="0"
     inkscape:pageshadow="2"
     inkscape:zoom="1.0059837"
     inkscape:cx="155.58537"
     inkscape:cy="354.58293"
     inkscape:document-units="px"
     inkscape:current-layer="layer6"
     showgrid="false"
     inkscape:window-width="1920"
     inkscape:window-height="1002"
     inkscape:window-x="0"
     inkscape:window-y="0"
     inkscape:window-maximized="1"
     units="px"
     inkscape:document-rotation="0" />
  <metadata
     id="metadata5">
    <rdf:RDF>
      <cc:Work
         rdf:about="">
        <dc:format>image/svg+xml</dc:format>
        <dc:type
           rdf:resource="http://purl.org/dc/dcmitype/StillImage" />
        <dc:title></dc:title>
      </cc:Work>
    </rdf:RDF>
  </metadata>
  <g
     inkscape:groupmode="layer"
     id="layer7"
     inkscape:label="Ebene 4"
     transform="translate(0,-398.99166)" />
  <g
     inkscape:label="Ebene 1"
     inkscape:groupmode="layer"
     id="layer1"
     transform="translate(0,-161.5333)">
    <path
       inkscape:connector-curvature="0"
       id="path868"
       d="m 55.418176,264.7689 v 15.39394"
       style="fill:none;stroke:#ffffff;stroke-width:12.3152;stroke-linecap:butt;stroke-linejoin:miter;stroke-miterlimit:4;stroke-dasharray:none;stroke-opacity:1" />
    <path
       sodipodi:nodetypes="cc"
       inkscape:connector-curvature="0"
       id="path870"
       d="M 40.068113,280.16253 H 70.648174"
       style="fill:none;stroke:#ffffff;stroke-width:6.15759;stroke-linecap:round;stroke-linejoin:round;stroke-miterlimit:4;stroke-dasharray:none;stroke-opacity:1" />
    <path
       sodipodi:nodetypes="ccccc"
       id="path846"
       d="M 3.0789562,264.75095 3.078825,203.32066 H 108.2507 v 61.43017 l -105.1717438,1.2e-4"
       style="fill:none;stroke:#ffffff;stroke-width:6.15765;stroke-linecap:round;stroke-linejoin:round;stroke-miterlimit:4.1;stroke-dasharray:none;stroke-opacity:0.983692;paint-order:normal" />
    <path
       style="fill:none;stroke:#ffffff;stroke-width:6.15765;stroke-linecap:round;stroke-linejoin:round;stroke-miterlimit:4.1;stroke-dasharray:none;stroke-opacity:0.983692;paint-order:normal"
       d="m 16.307991,201.27419 v -11.1827 H 121.47987 v 61.43018 H 111.4257"
       id="path846-0"
       sodipodi:nodetypes="ccccc" />
    <path
       style="fill:none;stroke:#ffffff;stroke-width:6.15765;stroke-linecap:round;stroke-linejoin:round;stroke-miterlimit:4.1;stroke-dasharray:none;stroke-opacity:0.983692;paint-order:normal"
       d="m 29.537158,188.04503 v -11.1827 H 134.70903 v 61.43018 h -10.05416"
       id="path846-1"
       sodipodi:nodetypes="ccccc" />
  </g>
  <g
     inkscape:groupmode="layer"
     id="layer5"
     inkscape:label="Ebene 2"
     transform="translate(0,-398.99166)" />
  <g
     inkscape:groupmode="layer"
     id="layer6"
     inkscape:label="Ebene 3"
     transform="translate(0,-398.99166)">
    <g
       style="fill:#ffffff;fill-opacity:1;stroke:#ffffff;stroke-opacity:1"
       transform="matrix(1.7328628,0,0,1.5898857,34.86786,452.32257)"
       id="g968">
      <g
         style="fill:#ffffff;fill-opacity:1;stroke:#ffffff;stroke-opacity:1"
         id="info" />
      <g
         style="fill:#ffffff;fill-opacity:1;stroke:#ffffff;stroke-opacity:1"
         id="icons">
        <path
           style="fill:#ffffff;fill-opacity:1;stroke:#ffffff;stroke-opacity:1"
           d="M 22.2,14.4 21,13.7 C 19.7,12.9 19.7,11 21,10.2 l 1.2,-0.7 c 1,-0.6 1.3,-1.8 0.7,-2.7 l -1,-1.7 C 21.3,4.1 20.1,3.8 19.2,4.4 L 18,5.1 C 16.7,5.9 15,4.9 15,3.4 V 2 C 15,0.9 14.1,0 13,0 H 11 C 9.9,0 9,0.9 9,2 V 3.3 C 9,4.8 7.3,5.8 6,5 L 4.8,4.4 C 3.8,3.8 2.6,4.2 2.1,5.1 l -1,1.7 C 0.6,7.8 0.9,9 1.8,9.6 L 3,10.3 C 4.3,11 4.3,13 3,13.7 l -1.2,0.7 c -1,0.6 -1.3,1.8 -0.7,2.7 l 1,1.7 c 0.6,1 1.8,1.3 2.7,0.7 L 6,18.9 c 1.3,-0.8 3,0.2 3,1.7 V 22 c 0,1.1 0.9,2 2,2 h 2 c 1.1,0 2,-0.9 2,-2 v -1.3 c 0,-1.5 1.7,-2.5 3,-1.7 l 1.2,0.7 c 1,0.6 2.2,0.2 2.7,-0.7 l 1,-1.7 C 23.4,16.2 23.1,15 22.2,14.4 Z M 12,16 C 9.8,16 8,14.2 8,12 8,9.8 9.8,8 12,8 c 2.2,0 4,1.8 4,4 0,2.2 -1.8,4 -4,4 z"
           id="settings" />
      </g>
    </g>
  </g>
</svg>
